<svg xmlns="http://www.w3.org/2000/svg" viewBox="0 0 800 533" width="800" height="533">
  <defs>
    <filter id="cardShad" x="-20%" y="-20%" width="140%" height="140%">
      <feDropShadow dx="0" dy="16" stdDeviation="18" flood-color="#000000" flood-opacity="0.2" />
    </filter>
  </defs>
  <!-- 1. Background Surface: Subtle linen cloth -->
  <rect width="100%" height="100%" rx="16" fill="#F4EFEA" />

  <!-- 2. Envelope Underlay (Pastel yellow with striped liner on left) -->
  <g transform="translate(180, 75)">
    <rect x="0" y="70" width="300" height="340" rx="4" fill="#FFE57F" stroke="#FDD835" stroke-width="1.5" />
    <polygon points="0,70 150,-20 300,70" fill="#FFF176" />
    <polygon points="12,70 150,-6 288,70" fill="#FFFFFF" />
    <!-- Yellow stripes in liner -->
    <line x1="60" y1="70" x2="150" y2="-6" stroke="#FFF176" stroke-width="8" />
    <line x1="100" y1="70" x2="170" y2="12" stroke="#FFF176" stroke-width="8" />
    <line x1="140" y1="70" x2="190" y2="28" stroke="#FFF176" stroke-width="8" />
    <line x1="180" y1="70" x2="215" y2="44" stroke="#FFF176" stroke-width="8" />
    <line x1="220" y1="70" x2="245" y2="58" stroke="#FFF176" stroke-width="8" />
  </g>

  <!-- 3. Centered Invitation Card: Amalfi lemon branches & arched card -->
  <g filter="url(#cardShad)" transform="translate(290, 50)">
    <!-- Mediterranean light blue card base -->
    <rect width="280" height="430" rx="12" fill="#D7EAF7" stroke="#C8DFEE" stroke-width="1" />
    <!-- Arched white badge -->
    <path d="M40 390 L40 130 Q40 50 140 50 Q240 50 240 130 L240 390 Z" fill="#FFFFFF" stroke="#E2EFF7" stroke-width="1" />
    <!-- Ripe lemons and blossoms framing -->
    <ellipse cx="40" cy="65" rx="22" ry="16" fill="#FCD34D" transform="rotate(30 40 65)" />
    <ellipse cx="240" cy="65" rx="22" ry="16" fill="#FCD34D" transform="rotate(-30 240 65)" />
    <circle cx="140" cy="50" r="5" fill="#FFF" stroke="#E2E8F0" />
    <ellipse cx="35" cy="360" rx="22" ry="16" fill="#FCD34D" transform="rotate(-25 35 360)" />
    <ellipse cx="245" cy="360" rx="22" ry="16" fill="#FCD34D" transform="rotate(25 245 360)" />

    <!-- Typography -->
    <text x="140" y="125" text-anchor="middle" font-family="'Great Vibes', cursive" font-size="28" fill="#264653">La Dolce</text>
    <text x="140" y="155" text-anchor="middle" font-family="'Great Vibes', cursive" font-size="28" fill="#264653">Vita</text>
    <text x="140" y="195" text-anchor="middle" font-family="'Montserrat', sans-serif" font-size="7.5" letter-spacing="1.5" fill="#2A6F97">PLEASE JOIN US TO SHOWER</text>
    <text x="140" y="222" text-anchor="middle" font-family="'Playfair Display', serif" font-size="13" font-weight="700" letter-spacing="1.5" fill="#1D3557">TAYLOR JOHNSON</text>
    <text x="140" y="260" text-anchor="middle" font-family="'Montserrat', sans-serif" font-size="8.5" letter-spacing="1" fill="#457B9D">SUNDAY, AUGUST 14 AT 2 PM</text>
    <text x="140" y="280" text-anchor="middle" font-family="'Montserrat', sans-serif" font-size="8.5" letter-spacing="1.5" fill="#457B9D">THE GARDEN ESTATE</text>
    <text x="140" y="320" text-anchor="middle" font-family="'Great Vibes', cursive" font-size="14" fill="#6C757D">for registry details below</text>
  </g>
</svg>