<svg xmlns="http://www.w3.org/2000/svg" viewBox="0 0 600 840" width="600" height="840">
  <defs>
    <filter id="bowShadow" x="-20%" y="-20%" width="140%" height="140%">
      <feDropShadow dx="3" dy="8" stdDeviation="8" flood-color="#000000" flood-opacity="0.32" />
    </filter>
  </defs>
  <!-- Minimalist fine warm white paper -->
  <rect width="100%" height="100%" rx="12" fill="#FFFFFF" />
  <rect x="16" y="16" width="568" height="808" rx="8" fill="none" stroke="#F0EFEA" stroke-width="1" />
  <!-- Realistic Bold Hanging Black Silk Ribbon Bow at top right -->
  <g filter="url(#bowShadow)" transform="translate(360, 40)">
    <!-- Hanging tail left -->
    <path d="M70 120 C 40 220, 20 340, 45 440 C 52 410, 68 350, 85 240 C 95 180, 85 130, 70 120 Z" fill="#1C1C1F" />
    <path d="M45 440 L 60 415 L 75 440 Z" fill="#FFFFFF" opacity="0.05" />
    <!-- Hanging tail right (longer) -->
    <path d="M120 125 C 135 240, 160 380, 150 490 C 138 460, 125 380, 115 280 C 108 200, 112 140, 120 125 Z" fill="#111113" />
    <!-- Left bow loop -->
    <path d="M95 105 C 50 60, -20 70, 5 120 C 25 155, 75 135, 95 110 Z" fill="#242429" stroke="#111113" stroke-width="1.5" />
    <path d="M85 108 C 45 75, 5 85, 20 120 C 35 140, 70 125, 85 112 Z" fill="#383840" opacity="0.35" />
    <!-- Right bow loop -->
    <path d="M95 105 C 145 55, 215 65, 190 120 C 170 155, 115 135, 95 110 Z" fill="#1A1A1D" stroke="#111113" stroke-width="1.5" />
    <path d="M105 108 C 145 75, 190 85, 175 120 C 160 140, 125 125, 105 112 Z" fill="#2E2E35" opacity="0.4" />
    <!-- Central bow knot -->
    <ellipse cx="96" cy="110" rx="18" ry="16" fill="#141416" stroke="#000000" stroke-width="1" />
    <path d="M88 102 Q96 98 104 102 Q106 114 96 118 Q86 114 88 102 Z" fill="#2E2E35" opacity="0.5" />
  </g>
</svg>