<svg xmlns="http://www.w3.org/2000/svg" viewBox="0 0 800 533" width="800" height="533">
  <defs>
    <filter id="cardShad" x="-20%" y="-20%" width="140%" height="140%">
      <feDropShadow dx="0" dy="16" stdDeviation="18" flood-color="#000000" flood-opacity="0.22" />
    </filter>
  </defs>
  <!-- 1. Background Surface: Soft Ivory Lace Texture -->
  <rect width="100%" height="100%" rx="16" fill="#F8F5EE" />
  <g opacity="0.35" stroke="#D8CEB4" stroke-width="1" fill="none">
    <circle cx="100" cy="100" r="70" stroke-dasharray="3,3" />
    <circle cx="700" cy="100" r="70" stroke-dasharray="3,3" />
    <circle cx="100" cy="433" r="70" stroke-dasharray="3,3" />
    <circle cx="700" cy="433" r="70" stroke-dasharray="3,3" />
  </g>

  <!-- 2. Envelope Underlay (Black envelope with striped liner on left) -->
  <g transform="translate(180, 75)">
    <!-- Black envelope body -->
    <rect x="0" y="70" width="300" height="340" rx="4" fill="#18181B" stroke="#000000" stroke-width="1.5" />
    <!-- Open flap with striped liner -->
    <polygon points="0,70 150,-20 300,70" fill="#18181B" />
    <!-- Striped liner triangle -->
    <polygon points="15,70 150,-5 285,70" fill="#FFFFFF" />
    <line x1="70" y1="70" x2="150" y2="-5" stroke="#18181B" stroke-width="10" />
    <line x1="110" y1="70" x2="165" y2="10" stroke="#18181B" stroke-width="10" />
    <line x1="150" y1="70" x2="190" y2="25" stroke="#18181B" stroke-width="10" />
    <line x1="190" y1="70" x2="215" y2="40" stroke="#18181B" stroke-width="10" />
    <line x1="230" y1="70" x2="245" y2="55" stroke="#18181B" stroke-width="10" />
  </g>

  <!-- 3. Centered Invitation Card with bold hanging black silk ribbon bow -->
  <g filter="url(#cardShad)" transform="translate(290, 50)">
    <rect width="280" height="430" rx="8" fill="#FFFFFF" stroke="#EBEAE6" stroke-width="1" />
    <!-- Hanging black ribbon bow graphic at top right -->
    <g transform="translate(150, 10)">
      <path d="M40 70 C 25 130, 15 200, 30 270 C 35 250, 45 210, 55 150 Z" fill="#1C1C1F" />
      <path d="M75 75 C 85 145, 100 230, 95 300 C 88 280, 80 230, 72 170 Z" fill="#111113" />
      <path d="M60 65 C 30 35, -10 45, 5 75 C 18 95, 48 85, 60 70 Z" fill="#242429" />
      <path d="M60 65 C 90 35, 130 45, 115 75 C 102 95, 72 85, 60 70 Z" fill="#1A1A1D" />
      <ellipse cx="60" cy="68" rx="11" ry="10" fill="#141416" />
    </g>

    <!-- Typography -->
    <text x="80" y="115" text-anchor="middle" font-family="'Playfair Display', serif" font-size="9.5" font-style="italic" fill="#555">join us for a</text>
    <text x="85" y="150" text-anchor="middle" font-family="'Great Vibes', cursive" font-size="32" fill="#111">Bridal</text>
    <text x="90" y="185" text-anchor="middle" font-family="'Great Vibes', cursive" font-size="32" fill="#111">Shower</text>
    <text x="80" y="225" text-anchor="middle" font-family="'Playfair Display', serif" font-size="9.5" font-style="italic" fill="#555">celebrating</text>
    <text x="85" y="258" text-anchor="middle" font-family="'Playfair Display', serif" font-size="14" font-weight="700" letter-spacing="1.5" fill="#111">DANIELLE</text>
    <text x="85" y="278" text-anchor="middle" font-family="'Playfair Display', serif" font-size="14" font-weight="700" letter-spacing="1.5" fill="#111">JOHNSON</text>
    <text x="80" y="325" text-anchor="middle" font-family="'Montserrat', sans-serif" font-size="8.5" font-weight="600" letter-spacing="1" fill="#333">MAY 18 AT 12 PM</text>
    <text x="80" y="345" text-anchor="middle" font-family="'Montserrat', sans-serif" font-size="8" letter-spacing="0.5" fill="#666">14 Meadow Drive</text>
  </g>
</svg>