<svg xmlns="http://www.w3.org/2000/svg" viewBox="0 0 80 80" width="80" height="80">
  <rect width="80" height="80" fill="#0B0B0D"/>
  <g stroke="#C9A227" stroke-width="2.4">
    <path d="M0,14 h80 M0,66 h80 M14,0 v80 M66,0 v80"/>
  </g>
  <g stroke="#E8CE86" stroke-width="1" opacity="0.75">
    <path d="M0,24 h80 M0,56 h80 M24,0 v80 M56,0 v80" stroke-dasharray="3 5"/>
  </g>
  <g fill="#C9A227" opacity="0.9">
    <path d="M40,32 l6,7 l-6,7 l-6,-7 z"/>
    <path d="M8,8 l4,5 l-4,5 l-4,-5 z"/>
    <path d="M72,8 l4,5 l-4,5 l-4,-5 z"/>
    <path d="M8,62 l4,5 l-4,5 l-4,-5 z"/>
    <path d="M72,62 l4,5 l-4,5 l-4,-5 z"/>
  </g>
</svg>