<svg xmlns="http://www.w3.org/2000/svg" viewBox="0 0 1200 800" width="1200" height="800">
  <defs>
    <radialGradient id="darkBg" cx="50%" cy="50%" r="70%">
      <stop offset="0%" stop-color="#2D1F23" />
      <stop offset="60%" stop-color="#181114" />
      <stop offset="100%" stop-color="#0B0709" />
    </radialGradient>
    <radialGradient id="roseGlow1" cx="40%" cy="40%" r="60%">
      <stop offset="0%" stop-color="#FCE7EB" />
      <stop offset="35%" stop-color="#F3B8C5" />
      <stop offset="70%" stop-color="#D9778D" />
      <stop offset="100%" stop-color="#732D3F" />
    </radialGradient>
    <radialGradient id="roseGlow2" cx="45%" cy="45%" r="55%">
      <stop offset="0%" stop-color="#FFF0F3" />
      <stop offset="40%" stop-color="#F7CAD0" />
      <stop offset="75%" stop-color="#C9687D" />
      <stop offset="100%" stop-color="#4A1E29" />
    </radialGradient>
    <filter id="softBlur" x="-20%" y="-20%" width="140%" height="140%">
      <feGaussianBlur stdDeviation="4" />
    </filter>
  </defs>
  <rect width="100%" height="100%" fill="url(#darkBg)" />
  <!-- Deep green foliage layer -->
  <g opacity="0.6">
    <ellipse cx="120" cy="180" rx="90" ry="140" fill="#1B281E" transform="rotate(-25 120 180)" />
    <ellipse cx="240" cy="120" rx="80" ry="110" fill="#152018" transform="rotate(35 240 120)" />
    <ellipse cx="1050" cy="190" rx="100" ry="150" fill="#1B281E" transform="rotate(20 1050 190)" />
    <ellipse cx="1120" cy="340" rx="90" ry="130" fill="#131C15" transform="rotate(-15 1120 340)" />
    <ellipse cx="140" cy="650" rx="110" ry="160" fill="#1A271C" transform="rotate(40 140 650)" />
    <ellipse cx="1020" cy="680" rx="120" ry="170" fill="#18231A" transform="rotate(-30 1020 680)" />
  </g>
  <!-- Blush roses left side -->
  <g transform="translate(60, 220)">
    <circle cx="90" cy="90" r="85" fill="url(#roseGlow1)" />
    <path d="M40 70 Q90 20 140 70 Q160 110 130 145 Q85 170 45 130 Z" fill="none" stroke="#FCE7EB" stroke-width="4" opacity="0.7" />
    <circle cx="90" cy="90" r="50" fill="#E895A7" opacity="0.6" />
    <circle cx="85" cy="85" r="28" fill="#FFF0F3" opacity="0.85" />
  </g>
  <g transform="translate(-10, 420)">
    <circle cx="70" cy="70" r="65" fill="url(#roseGlow2)" />
    <circle cx="70" cy="70" r="35" fill="#C9687D" opacity="0.5" />
    <circle cx="68" cy="68" r="18" fill="#FFF0F3" opacity="0.9" />
  </g>
  <g transform="translate(80, 50)">
    <circle cx="60" cy="60" r="55" fill="url(#roseGlow2)" opacity="0.8" />
    <circle cx="60" cy="60" r="25" fill="#FFF" opacity="0.75" />
  </g>
  <!-- Blush roses right side -->
  <g transform="translate(980, 140)">
    <circle cx="95" cy="95" r="90" fill="url(#roseGlow1)" />
    <path d="M45 75 Q95 25 145 75 Q165 115 135 150 Q90 175 50 135 Z" fill="none" stroke="#FCE7EB" stroke-width="4" opacity="0.65" />
    <circle cx="95" cy="95" r="48" fill="#E895A7" opacity="0.6" />
    <circle cx="92" cy="92" r="26" fill="#FFF0F3" opacity="0.85" />
  </g>
  <g transform="translate(1040, 360)">
    <circle cx="80" cy="80" r="75" fill="url(#roseGlow2)" />
    <circle cx="80" cy="80" r="42" fill="#C9687D" opacity="0.55" />
    <circle cx="78" cy="78" r="22" fill="#FFF0F3" opacity="0.9" />
  </g>
  <g transform="translate(950, 560)">
    <circle cx="75" cy="75" r="70" fill="url(#roseGlow1)" opacity="0.85" />
    <circle cx="75" cy="75" r="32" fill="#FFF" opacity="0.8" />
  </g>
  <!-- Subtle vignette shadow -->
  <rect width="100%" height="100%" fill="none" stroke="#000" stroke-width="60" opacity="0.4" />
</svg>